<svg xmlns="http://www.w3.org/2000/svg" width="200" height="200" viewBox="0 0 200 200">
  <defs>
    <style>
      .cls-1 {
        fill: #fff;
        fill-rule: evenodd;
      }
    </style>
  </defs>
  <path id="Preenchimento_de_Cor_1" data-name="Preenchimento de Cor 1" class="cls-1" d="M93,32c25.657-.689,40.563,9.926,47,28,7.215,20.258-5.391,47.179-22,50v-2a42.239,42.239,0,0,0,20-25c7.037-24.852-18.257-55.657-46-48C72.279,40.443,52.786,62.871,64,89c3.918,9.129,15.376,14.454,18,21H79c-3.935-4.9-10.466-7.576-14-13-11.3-17.335-6.37-45.365,8-56C78.816,36.7,86.577,36.2,93,32Zm0,16c29.468-1.029,40.482,19.757,27,42h-2V87c4.434-3.259,7.442-16.154,3-22-2.242-8.217-8.691-9.085-14-14-18.822-.739-19.3,3.6-29,14-1.2,14.229,1.918,14.713,4,25H80V89c-9.614-7.385-6.061-28.731,2-35C85.295,51.438,89.668,50.546,93,48Zm5,15a19.855,19.855,0,0,1,8,2c2.516,3.881,3.984,4.934,4,12l-5,6c-7.175,3.666-18.471-3.432-15-13C91.231,66.607,95.331,65.085,98,63Zm0,3c-3.446,3.5-5.046,3.463-5,11,3.211,2.068,3.7,3.542,9,4,3.446-3.5,5.046-3.463,5-11-2.072-1.283-2.3-2.077-5-3C100.82,66.2,100.319,66.227,98,66ZM96,88c7.484-.326,11.219.6,13,6,3.962,5.891-5.77,30.865-8,36-1.754-.631-0.971-0.193-2-1-4.99-6.362-9.941-26.946-8-37A24.976,24.976,0,0,0,96,88Zm1,3c-2.486,2.616-3.49,1.906-4,7-1.166,2.042,5.069,23.392,8,25,1.3-10.687,6.156-18.526,6-29a18.047,18.047,0,0,1-4-3H97ZM68,168c-4.815-.4-8.22-0.093-13-1l-1-3c-4.162-5.924,2.443-9.418,9-9v1c1.01,0.99.989-.985,1-1,0.874-2.356.017-7.812,1-11,1.754,0.631.971,0.193,2,1C69.71,149.186,68.132,161.8,68,168Zm106,0h-3c-0.13-7.547-1-18.143,1-24h2c-0.267,5.028-1.139,13.032,2,15,1.21-1.643,3.937-4.276,5-3,0.8,1.021.355,0.274,1,2-2.347.708-2.234,1.025-4,2q2.5,4,5,8h-4c-0.8-2.69-1.841-3.707-3-6a2.834,2.834,0,0,0-1,1C174.123,164.3,174.106,165.467,174,168ZM17,146a50.074,50.074,0,0,1,11,1c5.087,9.132-1.022,7.18,0,14,0.3,1.993,3.206,4.46,4,7H29c-2.076-3.661-3.478-7.421-9-8v8H17V146Zm94,0h15v3h-6v19h-3V150a18.324,18.324,0,0,0-6-1v-3Zm-91,3v8a30.438,30.438,0,0,0,7-1v-5C24.582,149.7,24.167,149.2,20,149Zm29,19c-4.493-.367-5.461-0.119-11,0-4.154-6.335-4.325-13.486,7-13,1.9,0.933,1.169.379,4,0v13Zm37-13v13c-4.815-.4-8.22-0.093-13-1v-1H72l-1-6c1.724-1.732,1.5-2.783,4-4C77.874,154.169,82.583,155.209,86,155Zm8,13c-2.076-.372-1.924-0.242-3-1-1.238-1.838-1.089-5.7-1-9h1l-1-2h1v-1c4.656,1.406,2.4.908,8,0v2C94.384,159.185,93.735,160.862,94,168Zm42-10h-3c-1.513,2.806-2.043,4.964-2,10h-3V155h2c2.61,2.241,1.866.994,6,0v3Zm16-3v13c-4.493-.367-5.461-0.119-11,0-3.765-5.727-4.753-13.325,6-13C148.8,155.888,148.81,155.3,152,155Zm8,0a20.14,20.14,0,0,1,7,1v2c-5.795-.157-7.149.021-8,5,2.873,1.448,6.66,1.8,8,4h-1c-1.418.961-3.273,0.976-6,1-1.021-.8-0.274-0.355-2-1q-0.5-1.5-1-3c-1.544-2.347-.586-4.281,0-7A10.925,10.925,0,0,0,160,155ZM41,157c-1.551,2.488-2.976,2.522-2,5,1.12,2.873.174,1.842,3,3,2.533-.058,4-0.236,4-6C43.909,157.879,44.168,157.566,41,157Zm18,0c-1.551,2.488-2.976,2.522-2,5,1.317,3.361,1.541,2.9,6,3a21.512,21.512,0,0,0,1-7H62C60.927,157.248,61.054,157.4,59,157Zm18,0c-1.3,2.418-1.8,2.833-2,7a10.931,10.931,0,0,1,3,2c1.754-.631.971-0.193,2-1,2.1-1.808,2-2.919,2-7H80C78.927,157.248,79.054,157.4,77,157Zm67,0c-1.133,1.546-1.085.843-2,3-0.752,1.073-.6.946-1,3a18.068,18.068,0,0,1,4,3l3-1a18.324,18.324,0,0,0,1-6A25.766,25.766,0,0,0,144,157Z"/>
</svg>
